<svg xmlns="http://www.w3.org/2000/svg" viewBox="0 0 1276 1156" width="32" height="32" preserveAspectRatio="xMidYMid meet">
<defs>
	<linearGradient id="fsFaviconGrad" gradientUnits="userSpaceOnUse" x1="749.412" y1="-39.1613" x2="226.763" y2="894.222">
		<stop offset="0" stop-opacity="1" stop-color="rgb(11,195,171)"/>
		<stop offset="1" stop-opacity="1" stop-color="rgb(3,117,204)"/>
	</linearGradient>
</defs>
<path fill="rgb(26,44,51)" d="M 0 0 L 1276 0 L 1276 1156 L 0 1156 L 0 0 z"/>
<path fill="url(#fsFaviconGrad)" d="M 756.688 52.1583 C 851.091 50.9137 946.283 52.4258 1040.76 51.5737 C 1079.44 51.2248 1120.73 52.6753 1158.96 51.9075 C 1158.2 84.7995 1160.52 107.784 1142.49 136.572 C 1101.76 201.621 1034.01 191.931 966.81 191.829 L 852.409 191.645 L 256.223 191.859 C 256.886 202.029 255.988 218.85 255.954 229.793 L 255.96 309.451 L 256.079 428.823 C 256.115 446.093 256.921 465.109 256.439 482.042 C 292.567 480.716 336.102 482.007 372.847 482.015 L 592.739 481.953 L 820.13 482.097 C 865.121 482.145 911.594 481.561 956.443 483.064 C 955.741 531.345 958.757 559.8 917.253 593.422 C 881.078 622.727 845.208 619.798 801.505 619.827 L 728.29 619.841 L 483.596 620.07 L 329.825 619.898 C 312.177 619.975 271.06 621.862 256.093 620.095 C 257.262 633.013 255.906 660.781 255.951 674.999 C 256.289 703.602 256.398 732.207 256.279 760.812 C 256.138 785.451 255.374 812.61 256.133 836.997 L 119.016 837.293 C 119.405 821.685 118.61 803.325 118.442 787.527 C 118.261 761.837 118.267 736.147 118.461 710.457 L 118.261 183.635 C 118.541 145.558 124.004 117.638 152.185 89.6959 C 166.623 75.3799 188.999 59.8074 209.159 55.6474 C 234.82 50.3522 265.307 51.8223 291.811 51.8964 L 375.832 51.7079 L 756.688 52.1583 z"/>
<path fill="rgb(31,202,121)" d="M 756.688 52.1583 C 851.091 50.9137 946.283 52.4258 1040.76 51.5737 C 1079.44 51.2248 1120.73 52.6753 1158.96 51.9075 C 1158.2 84.7995 1160.52 107.784 1142.49 136.572 C 1101.76 201.621 1034.01 191.931 966.81 191.829 L 852.409 191.645 C 837.374 189.989 802.92 190.721 785.95 190.426 C 843.167 188.543 902.433 190.76 959.892 189.863 C 963.356 189.809 965.101 190.632 968.767 189.565 C 965.863 187.813 958.407 189.855 953.533 186.303 L 954.012 184.735 L 956.614 184.271 C 955.317 184.021 944.884 181.8 944.696 181.822 C 913.12 185.385 925.226 169.615 917.578 162.427 C 912.898 161.659 910.637 160.508 906.263 158.621 C 908.934 156.065 910.756 154.693 912.079 151.238 C 910.879 146.05 907.169 147.164 903.667 141.819 C 901.742 139.363 904.383 134.273 902.772 131.476 C 899.618 125.997 884.884 115.609 887.228 109.066 C 891.442 107.911 894.272 106.794 898.646 106.169 L 899.372 106.072 C 901.091 104.561 901.981 103.872 904.169 103.211 L 905.06 102.92 C 905.26 102.86 905.459 102.801 905.658 102.741 C 902.324 100.922 900.493 100.169 898.065 97.2316 C 897.641 87.9696 924.652 66.001 925.663 62.742 C 922.129 60.3569 915.969 57.2954 914.275 53.6472 C 862.402 52.4344 809.171 55.9589 756.688 52.1583 z"/>
<path fill="rgb(31,202,121)" d="M 330.078 698.117 C 387.495 697.019 447.05 697.957 504.624 698.055 L 775.44 698.148 C 815.861 698.294 856.282 698.133 896.7 697.665 C 916.615 697.521 936.682 697.878 956.555 697.195 C 956.099 739.619 956.201 769.669 924.095 801.166 C 886.542 838.007 851.68 836.204 803.099 836.413 L 721.752 836.604 C 639.36 836.733 553.582 838.094 471.535 836.986 C 469.734 836.96 467.934 836.92 466.134 836.865 C 466.988 857.623 466.146 878.777 466.107 899.734 C 466.023 945.7 471.525 981.306 438.092 1017.59 C 393.556 1065.92 348.376 1057.98 288.443 1057.9 L 177.735 1057.8 C 169.351 1057.78 123.599 1057.14 118.003 1058.45 C 116.669 1058.49 116.699 1058.31 115.346 1057.84 L 114.024 1054.97 C 114.932 1049.76 114.846 1025.25 115.793 1023.94 L 115.054 1023.5 L 116.453 1025.04 C 116.902 1020.78 116.863 1016.82 116.855 1012.54 L 115.329 1020.17 L 114.688 1019.01 C 114.851 1007.21 115.041 935.102 118.099 931.384 C 118.312 927.532 117.755 925.032 119.683 922.326 C 133.385 921.009 159.589 921.588 174.214 921.525 C 205.533 921.363 236.852 921.416 268.171 921.684 C 288.393 921.823 310.804 922.431 330.851 921.57 C 329.35 890.811 330.382 848.555 330.532 817.684 L 330.078 698.117 z"/>
<path fill="rgb(19,48,49)" d="M 118.003 1058.45 C 116.669 1058.49 116.699 1058.31 115.346 1057.84 L 114.024 1054.97 C 114.932 1049.76 114.846 1025.25 115.793 1023.94 L 115.054 1023.5 L 116.453 1025.04 C 116.902 1020.78 116.863 1016.82 116.855 1012.54 L 115.329 1020.17 L 114.688 1019.01 C 114.851 1007.21 115.041 935.102 118.099 931.384 C 119.624 957.884 117.966 988.525 118.653 1015.47 C 118.828 1022.32 118.888 1054.22 118.003 1058.45 z"/>
<path fill="rgb(31,202,121)" d="M 540.123 266.517 C 574.545 265.961 608.732 266.58 643.135 266.607 C 703.81 266.302 764.486 266.305 825.161 266.616 L 1156.45 266.145 C 1154.26 313.02 1157.37 338.592 1121.35 375.075 C 1089.38 407.454 1051.26 405.915 1008.41 405.916 L 943.269 405.853 L 547.663 405.786 L 413.076 405.906 C 385.653 405.937 354.761 406.499 327.544 405.159 C 327.408 402.351 327.322 399.54 327.285 396.729 C 326.805 358.358 329.256 324.995 357.473 297.557 C 392.83 263.175 423.995 266.449 468.836 266.617 C 492.598 266.793 516.361 266.759 540.123 266.517 z"/>
</svg>
